<svg width="680" height="560" viewBox="0 0 680 560" role="img" xmlns="http://www.w3.org/2000/svg"><title>Tax the rich placard held by a diamond-braceleted wrist</title><desc>A close crop of a manicured hand raising a tax the rich protest sign, wearing a diamond bracelet and gold watch, with a champagne coupe nearby.</desc>
<rect x="0" y="0" width="680" height="560" fill="#F3E9D6"/>
<line x1="322" y1="300" x2="322" y2="112" stroke="#9C7B4E" stroke-width="9" stroke-linecap="round"/>
<rect x="196" y="42" width="252" height="104" rx="8" fill="#DBC9A2" stroke="#B89B6A" stroke-width="2"/>
<rect x="206" y="36" width="34" height="14" rx="3" fill="#EAE0C6" opacity="0.85"/>
<rect x="404" y="36" width="34" height="14" rx="3" fill="#EAE0C6" opacity="0.85"/>
<text x="322" y="102" text-anchor="middle" font-family="system-ui, -apple-system, 'Segoe UI', Roboto, Helvetica, Arial, sans-serif" font-size="30" font-weight="600" fill="#2A2622">tax the rich</text>
<path d="M322,118 Q317,112 312,116 Q308,120 322,130 Q336,120 332,116 Q327,112 322,118 Z" fill="#C0392B"/>
<line x1="255" y1="560" x2="300" y2="300" stroke="#E9C3A0" stroke-width="66" stroke-linecap="round"/>
<line x1="270" y1="334" x2="332" y2="328" stroke="#C9A24B" stroke-width="3"/>
<path d="M283,326 l3,5 l-3,5 l-3,-5 Z" fill="#BFE0E8"/>
<path d="M297,325 l3,5 l-3,5 l-3,-5 Z" fill="#CFE7EE"/>
<path d="M311,324 l3,5 l-3,5 l-3,-5 Z" fill="#BFE0E8"/>
<path d="M325,323 l3,5 l-3,5 l-3,-5 Z" fill="#CFE7EE"/>
<circle cx="286" cy="330" r="2" fill="#FFFFFF"/>
<circle cx="314" cy="328" r="2" fill="#FFFFFF"/>
<rect x="276" y="350" width="72" height="31" rx="9" fill="#C9A24B"/>
<circle cx="312" cy="366" r="17" fill="#F4E9BC" stroke="#B8902F" stroke-width="2"/>
<line x1="312" y1="366" x2="312" y2="356" stroke="#5C4A1E" stroke-width="2" stroke-linecap="round"/>
<line x1="312" y1="366" x2="320" y2="369" stroke="#5C4A1E" stroke-width="2" stroke-linecap="round"/>
<ellipse cx="312" cy="290" rx="44" ry="33" fill="#E9C3A0"/>
<rect x="290" y="270" width="52" height="12" rx="6" fill="#E9C3A0" stroke="#C9A07A" stroke-width="0.6"/>
<rect x="290" y="285" width="52" height="12" rx="6" fill="#E9C3A0" stroke="#C9A07A" stroke-width="0.6"/>
<rect x="290" y="300" width="48" height="12" rx="6" fill="#E9C3A0" stroke="#C9A07A" stroke-width="0.6"/>
<rect x="336" y="271" width="9" height="10" rx="3" fill="#B23A48"/>
<rect x="336" y="286" width="9" height="10" rx="3" fill="#B23A48"/>
<rect x="332" y="301" width="9" height="10" rx="3" fill="#B23A48"/>
<rect x="270" y="284" width="16" height="26" rx="8" fill="#E9C3A0" stroke="#C9A07A" stroke-width="0.6"/>
<rect x="271" y="302" width="9" height="9" rx="3" fill="#B23A48"/>
<circle cx="300" cy="307" r="6" fill="#C9A24B"/>
<path d="M300,300 l2,4 l-2,4 l-2,-4 Z" fill="#EAF4F7"/>
<line x1="560" y1="405" x2="560" y2="358" stroke="#C9A24B" stroke-width="3"/>
<ellipse cx="560" cy="408" rx="14" ry="4" fill="#C9A24B"/>
<path d="M533,356 L587,356 Q583,386 560,393 Q537,386 533,356 Z" fill="#EAD79A" stroke="#C9A24B" stroke-width="1.5"/>
<path d="M538,360 L582,360 Q578,382 560,382 Q542,382 538,360 Z" fill="#F2E6B4"/>
<circle cx="551" cy="367" r="2.2" fill="#FBF4D8"/>
<circle cx="569" cy="370" r="1.7" fill="#FBF4D8"/>
<path d="M572,340 L573.5,345 L578,346.5 L573.5,348 L572,353 L570.5,348 L566,346.5 L570.5,345 Z" fill="#E8C964"/>
<rect x="0" y="516" width="680" height="44" fill="#F3E9D6"/>
<line x1="40" y1="516" x2="640" y2="516" stroke="#2A2622" stroke-width="1"/>
<text x="40" y="543" font-family="Georgia, 'Times New Roman', serif" font-style="italic" font-size="13" fill="#6E5A3E">diamonds are forever; the revolution is seasonal</text>
<text x="640" y="543" text-anchor="end" font-family="Georgia, 'Times New Roman', serif" font-size="13" font-weight="500" fill="#2A2622">champagnesocialistsays.com</text>
</svg>
