<svg width="1200" height="630" viewBox="0 0 1200 630" role="img" xmlns="http://www.w3.org/2000/svg"><title>The champagne socialist — social card</title><desc>Wide social preview card with the site wordmark, tagline, URL, and a portrait of a woman raising a champagne coupe.</desc>
<defs><clipPath id="ogbadge"><circle cx="340" cy="340" r="288"/></clipPath></defs>
<rect x="0" y="0" width="1200" height="630" fill="#F3E9D6"/>
<rect x="18" y="18" width="1164" height="594" fill="none" stroke="#C9A24B" stroke-width="5"/>
<rect x="32" y="32" width="1136" height="566" fill="none" stroke="#C9A24B" stroke-width="1.5"/>
<text x="68" y="248" font-family="Georgia, 'Times New Roman', serif" font-size="80" font-weight="500" fill="#2A2622">the champagne</text>
<text x="68" y="338" font-family="Georgia, 'Times New Roman', serif" font-size="80" font-weight="500" fill="#2A2622">socialist</text>
<line x1="70" y1="378" x2="660" y2="378" stroke="#2A2622" stroke-width="1"/>
<text x="70" y="418" font-family="Georgia, 'Times New Roman', serif" font-style="italic" font-size="22" fill="#6E5A3E">type a take — get it back the way a champagne<tspan x="70" dy="29">socialist would say it: heartfelt, righteous,</tspan><tspan x="70" dy="29">and blissfully unaware of the irony.</tspan></text>
<text x="70" y="560" font-family="Georgia, 'Times New Roman', serif" font-size="30" font-weight="500" fill="#2A2622">champagnesocialistsays.com</text>
<g transform="translate(672,57) scale(0.76)">
<circle cx="340" cy="340" r="288" fill="#F3E9D6"/>
<g clip-path="url(#ogbadge)">
<ellipse cx="300" cy="350" rx="182" ry="212" fill="#4A3322"/>
<rect x="150" y="540" width="360" height="170" rx="60" fill="#9DAA8C"/>
<rect x="272" y="452" width="56" height="112" fill="#E9C3A0"/>
<ellipse cx="300" cy="345" rx="118" ry="142" fill="#E9C3A0"/>
<ellipse cx="194" cy="372" rx="46" ry="142" fill="#4A3322"/>
<ellipse cx="406" cy="372" rx="46" ry="142" fill="#4A3322"/>
<ellipse cx="300" cy="255" rx="143" ry="120" fill="#4A3322"/>
<path d="M248,348 Q272,340 296,348" fill="none" stroke="#3A2A1C" stroke-width="3" stroke-linecap="round"/>
<path d="M308,348 Q332,340 356,348" fill="none" stroke="#3A2A1C" stroke-width="3" stroke-linecap="round"/>
<path d="M248,374 Q272,364 296,374" fill="none" stroke="#2A2622" stroke-width="3" stroke-linecap="round"/>
<path d="M308,374 Q332,364 356,374" fill="none" stroke="#2A2622" stroke-width="3" stroke-linecap="round"/>
<path d="M300,388 L300,420 Q307,425 314,420" fill="none" stroke="#C9A07A" stroke-width="2.5" stroke-linecap="round"/>
<path d="M274,450 Q302,441 330,450 Q302,466 274,450 Z" fill="#B23A48"/>
<line x1="276" y1="450" x2="328" y2="450" stroke="#7E2531" stroke-width="1.2"/>
<circle cx="250" cy="235" r="35" fill="#2A2622" opacity="0.5"/>
<circle cx="250" cy="235" r="35" fill="none" stroke="#C9A24B" stroke-width="6"/>
<circle cx="352" cy="235" r="35" fill="#2A2622" opacity="0.5"/>
<circle cx="352" cy="235" r="35" fill="none" stroke="#C9A24B" stroke-width="6"/>
<line x1="284" y1="232" x2="318" y2="232" stroke="#C9A24B" stroke-width="6" stroke-linecap="round"/>
<line x1="218" y1="233" x2="196" y2="242" stroke="#C9A24B" stroke-width="6" stroke-linecap="round"/>
<line x1="384" y1="233" x2="406" y2="242" stroke="#C9A24B" stroke-width="6" stroke-linecap="round"/>
<circle cx="186" cy="408" r="6" fill="#C9A24B"/>
<circle cx="408" cy="408" r="6" fill="#C9A24B"/>
<path d="M186,418 l2.5,6 l-2.5,6 l-2.5,-6 Z" fill="#BFE0E8"/>
<path d="M408,418 l2.5,6 l-2.5,6 l-2.5,-6 Z" fill="#BFE0E8"/>
<line x1="430" y1="572" x2="462" y2="486" stroke="#9DAA8C" stroke-width="50" stroke-linecap="round"/>
<line x1="462" y1="486" x2="510" y2="300" stroke="#E9C3A0" stroke-width="36" stroke-linecap="round"/>
<rect x="500" y="316" width="22" height="9" rx="3" fill="#BFE0E8"/>
<rect x="502" y="328" width="20" height="9" rx="3" fill="#CFE7EE"/>
<ellipse cx="514" cy="295" rx="21" ry="25" fill="#E9C3A0"/>
<circle cx="507" cy="286" r="4.5" fill="#EAF4F7"/>
<line x1="526" y1="285" x2="526" y2="224" stroke="#C9A24B" stroke-width="4"/>
<ellipse cx="526" cy="288" rx="17" ry="5" fill="#C9A24B"/>
<path d="M493,210 L559,210 Q555,245 526,253 Q497,245 493,210 Z" fill="#EAD79A" stroke="#C9A24B" stroke-width="2"/>
<path d="M498,214 L554,214 Q550,240 526,240 Q502,240 498,214 Z" fill="#F2E6B4"/>
<circle cx="515" cy="222" r="2.4" fill="#FBF4D8"/>
<circle cx="534" cy="226" r="1.8" fill="#FBF4D8"/>
<circle cx="525" cy="218" r="1.6" fill="#FBF4D8"/>
<path d="M538,196 L539.5,201 L544,202.5 L539.5,204 L538,209 L536.5,204 L532,202.5 L536.5,201 Z" fill="#E8C964"/>
</g>
<circle cx="340" cy="340" r="288" fill="none" stroke="#C9A24B" stroke-width="7"/>
<circle cx="340" cy="340" r="272" fill="none" stroke="#C9A24B" stroke-width="2"/>
</g>
</svg>
